<svg id="visual" viewBox="0 0 900 600" width="900" height="600" xmlns="http://www.w3.org/2000/svg" xmlns:xlink="http://www.w3.org/1999/xlink" version="1.1"><rect x="0" y="0" width="900" height="600" fill="#ffffff"></rect><path d="M0 346L15 370.3C30 394.7 60 443.3 90 452.8C120 462.3 150 432.7 180 410.5C210 388.3 240 373.7 270 387C300 400.3 330 441.7 360 463.3C390 485 420 487 450 485.8C480 484.7 510 480.3 540 457.8C570 435.3 600 394.7 630 371.2C660 347.7 690 341.3 720 345.2C750 349 780 363 810 368.2C840 373.3 870 369.7 885 367.8L900 366" fill="none" stroke-linecap="round" stroke-linejoin="miter" stroke="#0066FF" stroke-width="40"></path></svg>