<svg id="visual" viewBox="0 0 900 600" width="900" height="600" xmlns="http://www.w3.org/2000/svg" xmlns:xlink="http://www.w3.org/1999/xlink" version="1.1"><rect x="0" y="0" width="900" height="600" fill="#ffffff"></rect><path d="M250 0L219.7 5.5C189.3 11 128.7 22 121.3 33.2C114 44.3 160 55.7 190.2 66.8C220.3 78 234.7 89 214.8 100C195 111 141 122 112.5 133.2C84 144.3 81 155.7 96.5 166.8C112 178 146 189 147.3 200C148.7 211 117.3 222 103.7 233.2C90 244.3 94 255.7 105.2 266.8C116.3 278 134.7 289 142.2 300C149.7 311 146.3 322 151.2 333.2C156 344.3 169 355.7 151.5 366.8C134 378 86 389 73.2 400C60.3 411 82.7 422 94.2 433.2C105.7 444.3 106.3 455.7 105.3 466.8C104.3 478 101.7 489 113.2 500C124.7 511 150.3 522 142.7 533.2C135 544.3 94 555.7 105.5 566.8C117 578 181 589 213 594.5L245 600L0 600L0 594.5C0 589 0 578 0 566.8C0 555.7 0 544.3 0 533.2C0 522 0 511 0 500C0 489 0 478 0 466.8C0 455.7 0 444.3 0 433.2C0 422 0 411 0 400C0 389 0 378 0 366.8C0 355.7 0 344.3 0 333.2C0 322 0 311 0 300C0 289 0 278 0 266.8C0 255.7 0 244.3 0 233.2C0 222 0 211 0 200C0 189 0 178 0 166.8C0 155.7 0 144.3 0 133.2C0 122 0 111 0 100C0 89 0 78 0 66.8C0 55.7 0 44.3 0 33.2C0 22 0 11 0 5.5L0 0Z" fill="#002233"></path></svg>