<svg id="visual" viewBox="0 0 900 600" width="900" height="600" xmlns="http://www.w3.org/2000/svg" xmlns:xlink="http://www.w3.org/1999/xlink" version="1.1"><rect x="0" y="0" width="900" height="600" fill="#001220"></rect><defs><linearGradient id="grad1_0" x1="33.3%" y1="0%" x2="100%" y2="100%"><stop offset="20%" stop-color="#001220" stop-opacity="1"></stop><stop offset="80%" stop-color="#001220" stop-opacity="1"></stop></linearGradient></defs><defs><linearGradient id="grad2_0" x1="0%" y1="0%" x2="66.7%" y2="100%"><stop offset="20%" stop-color="#001220" stop-opacity="1"></stop><stop offset="80%" stop-color="#001220" stop-opacity="1"></stop></linearGradient></defs><g transform="translate(900, 0)"><path d="M0 270.4C-28.1 247.9 -56.2 225.4 -88.8 214.3C-121.4 203.3 -158.4 203.8 -187.4 187.4C-216.4 170.9 -237.3 137.5 -249.8 103.5C-262.3 69.4 -266.4 34.7 -270.4 0L0 0Z" fill="#fcda3d"></path></g><g transform="translate(0, 600)"><path d="M0 -270.4C42.3 -273.2 84.6 -276.1 103.5 -249.8C122.4 -223.6 117.8 -168.3 142.8 -142.8C167.8 -117.4 222.3 -121.8 248.5 -102.9C274.7 -84.1 272.6 -42.1 270.4 0L0 0Z" fill="#fcda3d"></path></g></svg>